<svg width="128" height="128" viewBox="0 0 128 128" fill="none" xmlns="http://www.w3.org/2000/svg">
<path d="M15 4C47.5194 11.0569 131.783 18.6419 104.725 98.8877C105.687 100.432 106.544 101.996 107.301 103.533C110.157 109.335 111.796 115.126 112.44 118.811C112.821 120.987 111.365 123.06 109.189 123.44C107.013 123.821 104.94 122.365 104.56 120.189C104.038 117.208 102.626 112.148 100.124 107.066C100.055 106.926 99.9817 106.787 99.9111 106.647C28.7038 141.69 44.1579 21.0812 15 4ZM33.3926 15.7783C35.3134 20.3285 36.93 25.3288 38.3779 30.4346C40.3258 37.303 42.0864 44.7989 43.8564 52.0693C45.6495 59.4341 47.4724 66.657 49.6074 73.3896C54.0177 87.2966 59.2061 97.1501 66.1104 101.822C71.6862 105.595 80.3678 107.169 95.6357 99.8291C93.9228 97.6572 91.9814 95.767 89.8105 94.3477C87.9619 93.1386 87.4435 90.6594 88.6523 88.8105C89.8614 86.9619 92.3406 86.4435 94.1895 87.6523C95.8271 88.7231 97.3307 89.9581 98.7109 91.3027C102.968 76.4618 102.722 65.1661 100.059 56.4961C96.7868 45.8447 89.4994 37.9404 79.6836 31.8232C69.7656 25.6424 57.6405 21.5354 45.5625 18.5176C41.3116 17.4554 37.2551 16.5674 33.3926 15.7783Z" fill="white"/>
</svg>
